# xmcd
#
# Track frame offsets: 
#        150
#        23605
#        64144
#        87506
#        107663
#        129606
#        146334
#        162917
#        181664
#        199164
#        215553
#        236506
#        257476
#
# Disc length: 3780 seconds
#
# Revision: 0
# Processed by: cddbd v1.5.2PL0 Copyright (c) Steve Scherf et al.
# Submitted via: ExactAudioCopy v1.0b3
#
DISCID=af0ec20d
DTITLE=Hans Reffert, Werner Goos - I can't stop these voices in my hea
DTITLE=d
DYEAR=2014
DGENRE=Blues
TTITLE0=Blues And Troubles
TTITLE1=Preaching The Blues
TTITLE2=Speechless Beauty
TTITLE3=I Can't Stop The Voices In My Head
TTITLE4=Handsome Man
TTITLE5=Bittersweet Blues
TTITLE6=Love Kills Slowly
TTITLE7=No Fun, No Excitement
TTITLE8=Liar
TTITLE9=Dance Your Blues Away
TTITLE10=Zeitgeist - Ungeist
TTITLE11=He Moved Like A Snake
TTITLE12=Heaven And Hell
EXTD=
EXTT0=
EXTT1=
EXTT2=
EXTT3=
EXTT4=
EXTT5=
EXTT6=
EXTT7=
EXTT8=
EXTT9=
EXTT10=
EXTT11=
EXTT12=
PLAYORDER=
